<svg xmlns="http://www.w3.org/2000/svg" viewBox="0 0 560 580">
<defs><pattern id="puntos" width="9" height="9" patternUnits="userSpaceOnUse"><circle cx="2" cy="2" r="1.1" fill="#11110f" opacity=".2"/></pattern><pattern id="cuadras" width="78" height="64" patternUnits="userSpaceOnUse" patternTransform="rotate(-19)"><rect x="7" y="7" width="64" height="50" fill="#d9cba8"/><path d="M0 0h78v64" fill="none" stroke="#fffaf0" stroke-width="8"/></pattern></defs>
<rect width="560" height="580" fill="#f4ecda"/>
<circle cx="428" cy="127" r="112" fill="#efb713"/>
<path d="M0 255l71-72 73 21 94-97 52 54 37-26 92 115 63-38 78 81v109H0z" fill="#5c5b2d"/>
<path d="M0 255l71-72 73 21 94-97 52 54 37-26 92 115 63-38 78 81v109H0z" fill="url(#puntos)"/>
<path d="M0 348l51-27 38 13 58-43 33 25 75-29 45 34 72-18 48 21 67-36 73 19v273H0z" fill="#fffaf0"/>
<path d="M0 369l51-27 38 13 58-43 33 25 75-29 45 34 72-18 48 21 67-36 73 19v252H0z" fill="url(#cuadras)"/>
<path d="M-10 533l146-49 42-93 107 39 57-39 66 18 83-78 83 18" fill="none" stroke="#11110f" stroke-width="23"/>
<path d="M-10 533l146-49 42-93 107 39 57-39 66 18 83-78 83 18" fill="none" stroke="#efb713" stroke-width="17"/>
<path d="M-10 533l146-49 42-93 107 39 57-39 66 18 83-78 83 18" fill="none" stroke="#11110f" stroke-width="2" stroke-dasharray="4 9"/>
<g fill="#5c5b2d"><circle cx="72" cy="411" r="29"/><circle cx="114" cy="385" r="23"/><circle cx="341" cy="488" r="35"/><circle cx="384" cy="507" r="26"/><circle cx="468" cy="431" r="21"/></g>
<g fill="#11110f"><circle cx="244" cy="304" r="18"/><path d="M227 330q16-16 32 2l13 58-33 8-23-30z"/><path d="M237 384l29-4 14 58 27 27-11 12-43-27-10-30-18 39-41 22-7-13 32-30z"/><path d="M254 338l25 24 28-12 6 11-37 23-30-24z"/></g>
<path d="M310 228v127q0 17-14 15" fill="none" stroke="#11110f" stroke-width="7" stroke-linecap="round"/>
<path d="M201 282q72-127 171-22-19-3-31 15-19-10-38 8-18-12-42 5-20-17-60-6z" fill="#efb713" stroke="#11110f" stroke-width="2"/>
<path d="M309 230q-31 23-48 58m48-58q27 14 32 45" fill="none" stroke="#11110f" stroke-width="1.5"/>
<g fill="#11110f"><circle cx="134" cy="484" r="13"/><circle cx="490" cy="333" r="13"/></g><g fill="#f4ecda"><circle cx="134" cy="484" r="5"/><circle cx="490" cy="333" r="5"/></g>
<g stroke="#11110f" stroke-width="5"><path d="M78 53v66M45 86h66M54 62l48 48M54 110l48-48"/></g>
<path d="M24 555h108" stroke="#11110f" stroke-width="3"/><path d="M24 549v12m54-12v12m54-12v12" stroke="#11110f" stroke-width="2"/>
</svg>
